<svg xmlns="http://www.w3.org/2000/svg" zoomAndPan="magnify" viewBox="0 0 1499.999933 1499.999933" preserveAspectRatio="xMidYMid meet" version="1.2" baseProfile="tiny-ps" xml:space="preserve"><title>growfluence</title><defs><g/></defs><rect x="-150" width="1800" fill="#ffffff" y="-149.999993" height="1799.99992" fill-opacity="1"/><rect x="-150" width="1800" fill="#3a2a1a" y="-149.999993" height="1799.99992" fill-opacity="1"/><g fill="#b05a2a" fill-opacity="1"><g transform="translate(496.798815, 883.749653)"><g><path d="M 264 9.59375 C 217.0625 9.59375 177.0625 0.796875 144 -16.796875 C 110.9375 -34.398438 85.867188 -58.800781 68.796875 -90 C 51.734375 -121.195312 43.203125 -157.0625 43.203125 -197.59375 C 43.203125 -217.332031 45.066406 -236.535156 48.796875 -255.203125 C 57.867188 -304.265625 77.335938 -347.992188 107.203125 -386.390625 C 137.066406 -424.796875 174 -454.796875 218 -476.390625 C 262 -497.992188 308.53125 -508.796875 357.59375 -508.796875 C 380.53125 -508.796875 403.332031 -506.53125 426 -502 C 448.664062 -497.46875 466.398438 -492 479.203125 -485.59375 C 482.398438 -483.46875 484.398438 -481.335938 485.203125 -479.203125 C 486.003906 -477.066406 486.132812 -473.066406 485.59375 -467.203125 L 472.796875 -360 C 472.265625 -358.394531 470.796875 -357.59375 468.390625 -357.59375 C 465.992188 -357.59375 464.53125 -358.394531 464 -360 C 454.394531 -400.53125 437.726562 -432.128906 414 -454.796875 C 390.269531 -477.460938 360.269531 -488.796875 324 -488.796875 C 276 -488.796875 235.597656 -470.53125 202.796875 -434 C 169.992188 -397.46875 148.796875 -347.734375 139.203125 -284.796875 C 135.460938 -261.867188 133.59375 -238.132812 133.59375 -213.59375 C 133.59375 -149.59375 147.457031 -99.191406 175.1875 -62.390625 C 202.925781 -25.597656 241.332031 -7.203125 290.40625 -7.203125 C 316.53125 -7.203125 335.457031 -13.867188 347.1875 -27.203125 C 358.925781 -40.535156 366.929688 -65.066406 371.203125 -100.796875 C 373.867188 -120.535156 375.203125 -134.671875 375.203125 -143.203125 C 375.203125 -156.003906 372.929688 -165.335938 368.390625 -171.203125 C 363.859375 -177.066406 356.660156 -181.066406 346.796875 -183.203125 C 336.929688 -185.335938 321.863281 -186.40625 301.59375 -186.40625 C 300.53125 -186.40625 299.597656 -187.070312 298.796875 -188.40625 C 297.992188 -189.738281 297.59375 -191.203125 297.59375 -192.796875 C 297.59375 -194.398438 297.992188 -195.867188 298.796875 -197.203125 C 299.597656 -198.535156 300.53125 -199.203125 301.59375 -199.203125 C 341.59375 -196.535156 374.394531 -195.203125 400 -195.203125 C 425.0625 -195.203125 451.195312 -196 478.40625 -197.59375 C 480 -197.59375 480.925781 -195.726562 481.1875 -192 C 481.457031 -188.269531 480.53125 -186.40625 478.40625 -186.40625 C 471.46875 -186.9375 466.398438 -185.203125 463.203125 -181.203125 C 460.003906 -177.203125 457.070312 -167.46875 454.40625 -152 C 451.738281 -136.53125 448.800781 -116.796875 445.59375 -92.796875 C 442.394531 -71.992188 440.53125 -55.992188 440 -44.796875 C 439.46875 -33.597656 438.664062 -26.132812 437.59375 -22.40625 C 437.0625 -19.195312 436.257812 -17.0625 435.1875 -16 C 434.125 -14.9375 431.992188 -13.867188 428.796875 -12.796875 C 365.328125 2.128906 310.394531 9.59375 264 9.59375 Z M 264 9.59375 "/></g></g></g></svg>